 <svg
          width="78"
          height="44"
          viewBox="0 0 78 44"
          fill="none"
          xmlns="http://www.w3.org/2000/svg"
        >
          <path
            d="M5.688 17.24C2.99999 17.24 0.743995 15.512 0.119995 13.064L2.592 11.84C3.072 13.784 4.368 14.528 5.784 14.528C7.128 14.528 8.472 13.64 8.472 11.792C8.472 9.968 6.888 8.912 5.4 8.912H4.344V6.536L7.272 3.512H0.407995V0.895996H10.776V3.512L7.56 6.728C9.696 7.28 11.328 9.2 11.328 11.768C11.328 14.936 9.168 17.24 5.688 17.24Z"
            fill="currentColor"
          />
          <path
            d="M24.3877 17V5.24L20.9317 13.4L18.7237 11.48L23.4757 0.919996H27.1477V17H24.3877Z"
            fill="currentColor"
          />
          <path
            d="M34.1134 17.24C30.8494 17.24 27.9694 14.672 27.9694 11.216C27.9694 9.944 28.3294 8.696 29.0734 7.592L33.5614 0.919996H36.5854L33.6094 5.264C33.7774 5.24 33.9454 5.24 34.1134 5.24C37.2574 5.24 40.2574 7.76 40.2574 11.216C40.2574 14.672 37.2574 17.24 34.1134 17.24ZM30.8254 11.216C30.8254 13.352 32.5774 14.528 34.1134 14.528C35.6494 14.528 37.4014 13.352 37.4014 11.216C37.4014 9.08 35.6494 7.952 34.1134 7.952C32.5774 7.952 30.8254 9.08 30.8254 11.216Z"
            fill="currentColor"
          />
          <path
            d="M36.904 37.24C32.392 37.24 28.36 33.832 28.36 28.6C28.36 23.416 32.392 19.96 36.904 19.96C41.392 19.96 45.448 23.416 45.448 28.6C45.448 33.832 41.392 37.24 36.904 37.24ZM31.312 28.6C31.312 32.2 33.928 34.432 36.904 34.432C39.856 34.432 42.496 32.2 42.496 28.6C42.496 25.048 39.856 22.768 36.904 22.768C33.928 22.768 31.312 25.048 31.312 28.6ZM47.0125 37V20.2H49.8685V27.112H57.6205V20.2H60.4765V37H57.6205V29.824H49.8685V37H47.0125ZM62.8797 37V20.2H66.4557L73.8237 32.896V20.2H76.6797V37H73.1037L65.7357 24.304V37H62.8797Z"
            fill="currentColor"
          />
          <path
            d="M24.379 21L24.379 32.7015L22 28L19.9031 29.9104L23.5129 37L27 37L27 21L24.379 21Z"
            fill="currentColor"
          />
          <path
            d="M15.009 8.71048C13.9686 8.71048 13 7.91181 13 6.84692C13 5.78203 13.9686 5 15.009 5C16.0493 5 17 5.78203 17 6.84692C17 7.91181 16.0493 8.71048 15.009 8.71048ZM13 13.1364C13 12.0715 13.9686 11.2895 15.009 11.2895C16.0493 11.2895 17 12.0715 17 13.1364C17 14.2013 16.0493 15 15.009 15C13.9686 15 13 14.2013 13 13.1364Z"
            fill="currentColor"
          />
</svg>
